<svg xmlns="http://www.w3.org/2000/svg" viewBox="0 0 69.9 71.65"><defs><style>.cls-1{fill:#b57a4a;}.cls-2{fill:#ffce00;}.cls-3{fill:#f6b210;}.cls-4{fill:#9d6b40;}</style></defs><title>Ресурс 8</title><g id="Слой_2" data-name="Слой 2"><g id="Capa_1" data-name="Capa 1"><rect class="cls-1" width="69.9" height="71.65"/><rect class="cls-2" x="7.51" y="7.69" width="54.88" height="56.26"/><rect class="cls-3" x="9.45" y="58.37" width="5.43" height="5.63"/><polygon class="cls-3" points="57.4 7.69 57.4 13.32 51.97 13.32 51.97 18.96 46.53 18.96 46.53 24.58 41.09 24.58 41.09 30.22 35.66 30.22 35.66 35.85 30.23 35.85 30.23 41.48 24.79 41.48 24.79 47.11 19.35 47.11 19.35 52.74 13.91 52.74 13.91 58.37 13.91 64 19.35 64 24.79 64 30.23 64 35.66 64 41.09 64 46.53 64 51.97 64 57.4 64 62.84 64 62.84 58.37 62.84 52.74 62.84 47.11 62.84 41.48 62.84 35.85 62.84 30.22 62.84 24.58 62.84 18.96 62.84 13.32 62.84 7.69 57.4 7.69"/><rect class="cls-1" x="4.61" y="8.84" width="5.21" height="5.21"/><rect class="cls-1" x="4.61" y="4.95" width="5.21" height="9.1"/><rect class="cls-1" x="9.46" y="4.29" width="5.22" height="5.22"/><rect class="cls-1" x="59.94" y="4.62" width="5.22" height="9.1"/><rect class="cls-1" x="55.09" y="3.95" width="5.22" height="5.22"/><rect class="cls-1" x="4.67" y="57.25" width="5.22" height="9.1"/><rect class="cls-1" x="9.53" y="61.8" width="5.21" height="5.22"/><rect class="cls-1" x="60.01" y="57.58" width="5.22" height="9.1"/><rect class="cls-1" x="55.15" y="62.13" width="5.22" height="5.22"/><path class="cls-4" d="M19.34,27.88v-5.2h5.19v5.2ZM29.74,48.7V38.29H35v-5.2h5.2V22.68H24.53v-5.2H45.35v5.2h5.21V33.09H45.35v5.2h-5.2V48.7Zm0,10.4V53.91H40.15V59.1Z"/></g></g></svg>